<?xml version="1.0" encoding="UTF-8" standalone="no"?>
<!-- Created with Inkscape (http://www.inkscape.org/) -->

<svg
   width="48"
   height="48"
   viewBox="0 0 12.7 12.7"
   version="1.1"
   id="svg5"
   inkscape:version="1.2.2 (732a01da63, 2022-12-09)"
   sodipodi:docname="MultiDiary.svg"
   xmlns:inkscape="http://www.inkscape.org/namespaces/inkscape"
   xmlns:sodipodi="http://sodipodi.sourceforge.net/DTD/sodipodi-0.dtd"
   xmlns="http://www.w3.org/2000/svg"
   xmlns:svg="http://www.w3.org/2000/svg">
  <sodipodi:namedview
     id="namedview7"
     pagecolor="#505050"
     bordercolor="#eeeeee"
     borderopacity="1"
     inkscape:showpageshadow="0"
     inkscape:pageopacity="0"
     inkscape:pagecheckerboard="0"
     inkscape:deskcolor="#505050"
     inkscape:document-units="mm"
     showgrid="false"
     inkscape:zoom="14.638496"
     inkscape:cx="57.417101"
     inkscape:cy="31.902185"
     inkscape:window-width="3440"
     inkscape:window-height="1369"
     inkscape:window-x="1072"
     inkscape:window-y="750"
     inkscape:window-maximized="1"
     inkscape:current-layer="layer1" />
  <defs
     id="defs2" />
  <g
     inkscape:label="Layer 1"
     inkscape:groupmode="layer"
     id="layer1">
    <g
       id="g313"
       transform="translate(-0.032981,-0.0197301)">
      <rect
         style="fill:#ffffff;fill-opacity:1;stroke:#000000;stroke-width:0.388305;stroke-linecap:butt;stroke-linejoin:bevel;stroke-dasharray:none;stroke-opacity:1"
         id="rect111"
         width="9.6292515"
         height="11.229447"
         x="1.182343"
         y="1.1410186" />
      <rect
         style="fill:#ffffff;fill-opacity:1;stroke:#000000;stroke-width:0.39503;stroke-linecap:butt;stroke-linejoin:bevel;stroke-dasharray:none;stroke-opacity:1"
         id="rect897"
         width="7.6714134"
         height="0.16171879"
         x="2.1612623"
         y="3.1095328" />
      <rect
         style="fill:#ffffff;fill-opacity:1;stroke:#000000;stroke-width:0.39503;stroke-linecap:butt;stroke-linejoin:bevel;stroke-dasharray:none;stroke-opacity:1"
         id="rect897-1"
         width="7.6714134"
         height="0.16171879"
         x="2.1612623"
         y="5.3834958" />
      <rect
         style="fill:#ffffff;fill-opacity:1;stroke:#000000;stroke-width:0.39503;stroke-linecap:butt;stroke-linejoin:bevel;stroke-dasharray:none;stroke-opacity:1"
         id="rect897-1-8"
         width="7.6714134"
         height="0.16171879"
         x="2.1612623"
         y="7.6574588" />
      <rect
         style="fill:#ffffff;fill-opacity:1;stroke:#000000;stroke-width:0.39503;stroke-linecap:butt;stroke-linejoin:bevel;stroke-dasharray:none;stroke-opacity:1"
         id="rect1725"
         width="7.6714134"
         height="0.16171879"
         x="2.1612623"
         y="9.9314213" />
      <rect
         style="fill:#ffffff;fill-opacity:1;stroke:#000000;stroke-width:0.388305;stroke-linecap:butt;stroke-linejoin:bevel;stroke-dasharray:none;stroke-opacity:1"
         id="rect1737"
         width="9.6292515"
         height="11.229447"
         x="1.9543675"
         y="0.36899421" />
      <rect
         style="fill:#ffffff;fill-opacity:1;stroke:#000000;stroke-width:0.388305;stroke-linecap:butt;stroke-linejoin:bevel;stroke-dasharray:none;stroke-opacity:1"
         id="rect1727"
         width="9.6292515"
         height="11.229447"
         x="1.182343"
         y="1.1410186" />
      <rect
         style="fill:#ffffff;fill-opacity:1;stroke:#000000;stroke-width:0.39503;stroke-linecap:butt;stroke-linejoin:bevel;stroke-dasharray:none;stroke-opacity:1"
         id="rect1729"
         width="7.6714134"
         height="0.16171879"
         x="2.1612623"
         y="3.1095328" />
      <rect
         style="fill:#ffffff;fill-opacity:1;stroke:#000000;stroke-width:0.39503;stroke-linecap:butt;stroke-linejoin:bevel;stroke-dasharray:none;stroke-opacity:1"
         id="rect1731"
         width="7.6714134"
         height="0.16171879"
         x="2.1612623"
         y="5.3834958" />
      <rect
         style="fill:#ffffff;fill-opacity:1;stroke:#000000;stroke-width:0.39503;stroke-linecap:butt;stroke-linejoin:bevel;stroke-dasharray:none;stroke-opacity:1"
         id="rect1733"
         width="7.6714134"
         height="0.16171879"
         x="2.1612623"
         y="7.6574588" />
      <rect
         style="fill:#ffffff;fill-opacity:1;stroke:#000000;stroke-width:0.39503;stroke-linecap:butt;stroke-linejoin:bevel;stroke-dasharray:none;stroke-opacity:1"
         id="rect1735"
         width="7.6714134"
         height="0.16171879"
         x="2.1612623"
         y="9.9314213" />
      <path
         style="fill:#fff6d5;fill-opacity:1;stroke:#000000;stroke-width:0.106105;stroke-linecap:butt;stroke-linejoin:bevel;stroke-dasharray:none;stroke-opacity:1"
         d="M 1.3788589,6.7557429 V 1.3445525 H 5.9969693 10.61508 V 6.7557429 12.166933 H 5.9969693 1.3788589 Z M 9.9374741,10.198622 10.039571,10.097206 V 10.012286 9.927362 L 9.9374741,9.8259439 9.8353774,9.7245283 H 5.9962882 2.1571991 L 2.0557835,9.826625 1.9543678,9.9287223 v 0.083561 0.08356 l 0.1014157,0.102097 0.1014156,0.102097 h 3.8390891 3.8390892 z m 0,-2.2739631 0.1020969,-0.1014156 V 7.7383197 7.6533958 L 9.9374741,7.5519807 9.8353774,7.4505651 H 5.9962882 2.1571991 L 2.0557835,7.5526618 1.9543678,7.6547587 v 0.083561 0.083561 l 0.1014157,0.1020965 0.1014156,0.1020967 h 3.8390891 3.8390892 z m 0,-2.2739638 0.1020969,-0.1014156 V 5.4643561 5.3794326 L 9.9374741,5.2780169 9.8353774,5.1766013 H 5.9962882 2.1571991 L 2.0557835,5.2786986 1.9543678,5.3807955 v 0.083561 0.083561 L 2.0557835,5.650014 2.1571991,5.7521107 h 3.8390891 3.8390892 z m 0,-2.2739632 0.1020969,-0.1014156 V 3.1903929 3.1054694 L 9.9374741,3.0040538 9.8353774,2.9026381 H 5.9962882 2.1571991 L 2.0557835,3.0047354 1.9543678,3.1068323 v 0.083561 0.083561 l 0.1014157,0.1020959 0.1014156,0.1020973 h 3.8390891 3.8390892 z"
         id="path1808" />
      <path
         style="fill:#ffeeaa;fill-opacity:1;stroke:#000000;stroke-width:0.106105;stroke-linecap:butt;stroke-linejoin:bevel;stroke-dasharray:none;stroke-opacity:1"
         d="M 11.008112,6.2605687 V 1.126229 l -0.0951,-0.094372 -0.0951,-0.094372 H 6.4843967 2.1508832 V 0.75500643 0.57252785 h 4.618111 4.6181118 V 5.9837182 11.394908 h -0.189498 -0.189496 z"
         id="path1879" />
    </g>
  </g>
</svg>
